<?xml version="1.0" encoding="utf-8"?>
<!-- Generator: Adobe Illustrator 26.0.1, SVG Export Plug-In . SVG Version: 6.00 Build 0)  -->
<svg version="1.1" id="Layer_1" xmlns="http://www.w3.org/2000/svg" xmlns:xlink="http://www.w3.org/1999/xlink" x="0px" y="0px"
	 viewBox="0 0 1920 1398" style="enable-background:new 0 0 1920 1398;" xml:space="preserve">
<style type="text/css">
	.st0{fill:#0566DB;}
	.st1{fill:#E02B4E;stroke:#020000;stroke-miterlimit:10;}
	.st2{fill:#515DF2;}
	.st3{fill:#E02B4E;}
	.st4{font-family:'Georgia';}
	.st5{font-size:110px;}
</style>
<g>
	<path class="st0" d="M1634.2,699.5c1.3,230.6-117.8,454.3-311.1,580.3c-461.4,298.9-1055.8-35.1-1057.8-580.4
		c2.1-545.3,596.4-879.2,1057.8-580.3C1516.4,245.2,1635.5,468.9,1634.2,699.5L1634.2,699.5z M1546.8,699.5
		C1547,259.8,1108-49.9,695.7,113c-236.8,93-395.9,332.4-394,586.5c-1.9,254,157.1,493.5,394,586.5
		C1108,1448.9,1547,1139.2,1546.8,699.5L1546.8,699.5z"/>
</g>
<g>
	<path class="st1" d="M1082.3,887.9c0-10.5-8.5-19-18.9-19c-10.4,0-18.9,8.5-18.9,19c0,10.5,8.5,19,18.9,19
		C1073.8,906.9,1082.3,898.4,1082.3,887.9z"/>
	<path class="st2" d="M1113.3,873.3c-8.5-25.7-36.3-39.7-61.9-31.1c-21.5,7.2-34.7,27.9-33.4,49.6c-38.1,6.2-74.4-0.7-110.6-21.1
		c-6.4-3.6-12-7.8-16.5-12.4c-10.9-11-17-24.1-18.9-40.1c-2-17.3,1.9-35.4,11.1-51c21.8-37.3,54-64.5,95.7-80.7
		c6.4,8,17.2,11.5,27.4,8.1l3-1c13.3,21.9,33.1,38.1,58.1,47.3c23.3,8.6,42.8,8.1,44.9,8l0,0c6.6-0.2,12.4-4.2,15.1-10
		c82.8,7.2,150.8-19.5,163.6-24.9c1.2-0.5,2.4-1,3.6-1.5c0.6-0.3,1.3-0.5,1.9-0.8c14.1-5.7,22.8-16.8,24.4-31.1
		c0.7-6.2,0-12.6-2.1-18.8l-2.9-8.9c1.4-1,2.4-2.6,2.7-4.5c0.5-3.3,0.4-7.1,0.2-10.7c-0.5-6.9-2-13.6-4.2-20.1l-1.9-5.9
		c0-0.1-0.1-0.2-0.1-0.3c-2-5.9-8.5-9-14.4-7l-4.8,1.6l-4.8,1.6c-5.9,2-9.2,8.3-7.3,14.3c0,0.1,0.1,0.2,0.1,0.3l1.9,5.9
		c2.1,6.4,5,12.7,8.6,18.4c1.9,3,4,5.9,6.3,8.3c1.4,1.4,3.2,2.2,5.2,2.2l3,9c1.5,4.4,2,8.9,1.5,13.2c-1.1,9.6-6.6,16.5-16.3,20.4
		c-0.6,0.2-1.2,0.5-1.8,0.7c-1.3,0.5-2.6,1-3.9,1.6c-12.4,5.2-77.9,30.9-157.8,23.9c-2.2-6.6-8.2-11.5-15.5-11.9
		c-52.1-3.1-72.2-34.3-78.4-47.9c-0.6-1.4-1.2-2.8-1.8-4.3c-0.2-0.4-0.3-0.8-0.4-1.1c-0.1-0.3-0.2-0.6-0.3-1
		c-0.4-1.4-0.8-2.9-1.1-4.3c-3.1-14.5-5.9-51.8,34.1-85.7c5.6-4.8,7.5-12.3,5.3-18.9c64.5-55.6,139.9-75,140.7-75.2
		c1.3-0.3,2.7-0.7,4-1.1c0.6-0.2,1.3-0.3,1.9-0.5c10.1-2.7,18.6-0.5,25.2,6.5c3,3.2,5.2,7,6.7,11.5l3,9c-1.5,1.2-2.6,2.9-2.8,4.9
		c-0.4,3.3-0.3,7-0.1,10.4c0.5,6.8,2,13.4,4.1,19.9l1.9,5.9c0,0.1,0.1,0.2,0.1,0.3c2,5.9,8.5,9,14.4,7l4.8-1.6l4.8-1.6
		c5.9-2,9.2-8.3,7.3-14.3c0-0.1-0.1-0.2-0.1-0.3l-1.9-5.9c-2.2-6.5-5-12.8-8.7-18.6c-1.9-3-4.1-6.1-6.5-8.5c-1.3-1.3-3-2-4.8-1.9
		l-2.9-8.9c-2.1-6.3-5.3-11.8-9.6-16.3c-9.9-10.5-23.4-14.2-38.1-10.2c-0.7,0.2-1.3,0.4-2,0.5c-1.2,0.3-2.5,0.7-3.7,1
		c-2.6,0.6-26,6.7-58.6,22c-33,15.5-62.4,34.3-87.5,55.9c-5.6-2.9-12.6-2.6-18,1.2l0,0c-1.8,1.2-17.6,12.6-31.1,33.5
		C998.2,597,992,621,993.8,645.6l-3.5,1.2c-10.2,3.4-16.8,12.8-17.1,23c-0.2,0.1-0.5,0.1-0.7,0.2c-45.5,17.7-80.6,47.4-104.5,88.2
		c-11,18.9-15.8,40.9-13.4,61.9c0.7,6.4,2.1,12.4,4,18.2c4,12.1,10.7,22.9,19.8,32.2c5.7,5.8,12.5,10.9,20.4,15.3
		c39.7,22.4,81.1,30,123.3,22.9c10.1,22.8,36.1,34.7,60.2,26.6C1107.9,926.9,1121.8,899,1113.3,873.3z M1031.8,887.9
		c0-17.4,14.1-31.6,31.5-31.6c17.4,0,31.5,14.2,31.5,31.6c0,17.4-14.1,31.6-31.5,31.6C1045.9,919.6,1031.8,905.4,1031.8,887.9z
		 M1004.9,653.3"/>
</g>
<polygon class="st3" points="724.5,793.6 724.5,1037 767.2,973.1 767.2,845.5 880.4,946 880.4,895.2 771.9,798.9 960,631.9 
	892.3,631.9 764.5,753.7 764.5,576 724.5,613.9 "/>
<text transform="matrix(1.1607 0 0 1 553.204 362.824)" class="st3 st4 st5">K A S H M I R </text>
<text transform="matrix(1.1607 0 0 1 745.2583 1168.749)" class="st2 st4 st5">C U R E</text>
</svg>
